<svg width="886" height="886" viewBox="0 0 886 886" fill="none" xmlns="http://www.w3.org/2000/svg">
<g clip-path="url(#paint0_diamond_3_2052_clip_path)" data-figma-skip-parse="true"><g transform="matrix(-0.474461 0.559034 -0.216552 -0.183791 443.279 442.64)"><rect x="0" y="0" width="734.722" height="1006.11" fill="url(#paint0_diamond_3_2052)" opacity="1" shape-rendering="crispEdges"/><rect x="0" y="0" width="734.722" height="1006.11" transform="scale(1 -1)" fill="url(#paint0_diamond_3_2052)" opacity="1" shape-rendering="crispEdges"/><rect x="0" y="0" width="734.722" height="1006.11" transform="scale(-1 1)" fill="url(#paint0_diamond_3_2052)" opacity="1" shape-rendering="crispEdges"/><rect x="0" y="0" width="734.722" height="1006.11" transform="scale(-1)" fill="url(#paint0_diamond_3_2052)" opacity="1" shape-rendering="crispEdges"/></g></g><path fill-rule="evenodd" clip-rule="evenodd" d="M609.501 193.08C539.046 224.191 452.346 284.46 368.722 368.083C285.099 451.706 224.831 538.407 193.72 608.862C178.067 644.309 171.321 672.213 170.472 691.553C169.838 705.985 172.482 711.401 173.279 712.64C174.518 713.437 179.935 716.081 194.366 715.448C213.706 714.598 241.61 707.852 277.057 692.199C347.512 661.088 434.213 600.82 517.836 517.197C601.459 433.573 661.728 346.873 692.839 276.418C708.492 240.971 715.237 213.067 716.087 193.726C716.721 179.295 714.076 173.878 713.279 172.64C712.041 171.843 706.624 169.198 692.193 169.832C672.852 170.682 644.948 177.427 609.501 193.08ZM713.572 172.861C713.568 172.865 713.503 172.82 713.389 172.713C713.519 172.803 713.576 172.857 713.572 172.861ZM713.206 172.53C713.099 172.416 713.054 172.351 713.058 172.346C713.062 172.343 713.116 172.4 713.206 172.53ZM172.986 712.419C172.99 712.415 173.055 712.46 173.17 712.567C173.039 712.477 172.982 712.423 172.986 712.419ZM173.352 712.749C173.459 712.864 173.504 712.929 173.5 712.933C173.496 712.937 173.442 712.88 173.352 712.749ZM762.329 123.59C694.072 55.3333 495.896 142.844 319.689 319.05C143.483 495.256 55.9728 693.433 124.23 761.69C192.486 829.946 390.663 742.436 566.869 566.23C743.075 390.023 830.586 191.847 762.329 123.59Z" data-figma-gradient-fill="{&#34;type&#34;:&#34;GRADIENT_DIAMOND&#34;,&#34;stops&#34;:[{&#34;color&#34;:{&#34;r&#34;:0.61568629741668701,&#34;g&#34;:0.91764706373214722,&#34;b&#34;:0.83137255907058716,&#34;a&#34;:1.0},&#34;position&#34;:0.0},{&#34;color&#34;:{&#34;r&#34;:1.0,&#34;g&#34;:1.0,&#34;b&#34;:1.0,&#34;a&#34;:1.0},&#34;position&#34;:1.0}],&#34;stopsVar&#34;:[{&#34;color&#34;:{&#34;r&#34;:0.61568629741668701,&#34;g&#34;:0.91764706373214722,&#34;b&#34;:0.83137255907058716,&#34;a&#34;:1.0},&#34;position&#34;:0.0},{&#34;color&#34;:{&#34;r&#34;:1.0,&#34;g&#34;:1.0,&#34;b&#34;:1.0,&#34;a&#34;:1.0},&#34;position&#34;:1.0}],&#34;transform&#34;:{&#34;m00&#34;:-948.92254638671875,&#34;m01&#34;:-433.10446166992188,&#34;m02&#34;:1134.2927246093750,&#34;m10&#34;:1118.0686035156250,&#34;m11&#34;:-367.58264160156250,&#34;m12&#34;:67.39685058593750},&#34;opacity&#34;:1.0,&#34;blendMode&#34;:&#34;NORMAL&#34;,&#34;visible&#34;:true}"/>
<g clip-path="url(#paint1_diamond_3_2052_clip_path)" data-figma-skip-parse="true"><g transform="matrix(-0.36781 0.433372 -0.167875 -0.142478 377.028 352.639)"><rect x="0" y="0" width="764.29" height="1082.44" fill="url(#paint1_diamond_3_2052)" opacity="1" shape-rendering="crispEdges"/><rect x="0" y="0" width="764.29" height="1082.44" transform="scale(1 -1)" fill="url(#paint1_diamond_3_2052)" opacity="1" shape-rendering="crispEdges"/><rect x="0" y="0" width="764.29" height="1082.44" transform="scale(-1 1)" fill="url(#paint1_diamond_3_2052)" opacity="1" shape-rendering="crispEdges"/><rect x="0" y="0" width="764.29" height="1082.44" transform="scale(-1)" fill="url(#paint1_diamond_3_2052)" opacity="1" shape-rendering="crispEdges"/></g></g><path fill-rule="evenodd" clip-rule="evenodd" d="M505.886 159.177C451.268 183.295 384.056 230.016 319.23 294.842C254.404 359.668 207.683 426.88 183.565 481.497C171.431 508.977 166.202 530.608 165.543 545.601C165.052 556.788 167.102 560.987 167.72 561.948C168.68 562.565 172.879 564.616 184.066 564.124C199.06 563.465 220.691 558.236 248.17 546.102C302.788 521.984 369.999 475.263 434.826 410.437C499.652 345.611 546.372 278.399 570.49 223.782C582.625 196.302 587.854 174.671 588.513 159.678C589.004 148.491 586.954 144.291 586.336 143.331C585.376 142.713 581.177 140.663 569.99 141.155C554.996 141.813 533.365 147.043 505.886 159.177ZM586.563 143.502C586.56 143.506 586.51 143.471 586.421 143.388C586.522 143.458 586.566 143.499 586.563 143.502ZM586.279 143.246C586.196 143.157 586.162 143.107 586.165 143.104C586.168 143.101 586.209 143.145 586.279 143.246ZM167.492 561.776C167.495 561.773 167.546 561.808 167.635 561.891C167.534 561.821 167.489 561.78 167.492 561.776ZM167.776 562.032C167.859 562.121 167.894 562.172 167.891 562.175C167.888 562.178 167.846 562.134 167.776 562.032ZM624.36 105.307C571.446 52.3935 417.817 120.233 281.219 256.831C144.621 393.429 76.782 547.058 129.696 599.972C182.609 652.885 336.239 585.046 472.837 448.448C609.434 311.85 677.274 158.221 624.36 105.307Z" data-figma-gradient-fill="{&#34;type&#34;:&#34;GRADIENT_DIAMOND&#34;,&#34;stops&#34;:[{&#34;color&#34;:{&#34;r&#34;:0.61568629741668701,&#34;g&#34;:0.91764706373214722,&#34;b&#34;:0.83137255907058716,&#34;a&#34;:1.0},&#34;position&#34;:0.0},{&#34;color&#34;:{&#34;r&#34;:1.0,&#34;g&#34;:1.0,&#34;b&#34;:1.0,&#34;a&#34;:1.0},&#34;position&#34;:1.0}],&#34;stopsVar&#34;:[{&#34;color&#34;:{&#34;r&#34;:0.61568629741668701,&#34;g&#34;:0.91764706373214722,&#34;b&#34;:0.83137255907058716,&#34;a&#34;:1.0},&#34;position&#34;:0.0},{&#34;color&#34;:{&#34;r&#34;:1.0,&#34;g&#34;:1.0,&#34;b&#34;:1.0,&#34;a&#34;:1.0},&#34;position&#34;:1.0}],&#34;transform&#34;:{&#34;m00&#34;:-735.61932373046875,&#34;m01&#34;:-335.74920654296875,&#34;m02&#34;:912.7121582031250,&#34;m10&#34;:866.7438964843750,&#34;m11&#34;:-284.95565795898438,&#34;m12&#34;:61.745250701904297},&#34;opacity&#34;:1.0,&#34;blendMode&#34;:&#34;NORMAL&#34;,&#34;visible&#34;:true}"/>
<g clip-path="url(#paint2_diamond_3_2052_clip_path)" data-figma-skip-parse="true"><g transform="matrix(-0.302866 0.356852 -0.138233 -0.117321 316.439 282.553)"><rect x="0" y="0" width="792.496" height="1155.25" fill="url(#paint2_diamond_3_2052)" opacity="1" shape-rendering="crispEdges"/><rect x="0" y="0" width="792.496" height="1155.25" transform="scale(1 -1)" fill="url(#paint2_diamond_3_2052)" opacity="1" shape-rendering="crispEdges"/><rect x="0" y="0" width="792.496" height="1155.25" transform="scale(-1 1)" fill="url(#paint2_diamond_3_2052)" opacity="1" shape-rendering="crispEdges"/><rect x="0" y="0" width="792.496" height="1155.25" transform="scale(-1)" fill="url(#paint2_diamond_3_2052)" opacity="1" shape-rendering="crispEdges"/></g></g><path fill-rule="evenodd" clip-rule="evenodd" d="M422.544 123.25C377.57 143.109 322.226 181.58 268.846 234.96C215.466 288.34 176.995 343.684 157.136 388.658C147.144 411.285 142.838 429.097 142.296 441.443C141.891 450.655 143.579 454.113 144.088 454.903C144.878 455.412 148.336 457.1 157.548 456.696C169.894 456.153 187.706 451.847 210.333 441.856C255.307 421.996 310.651 383.525 364.031 330.145C417.411 276.765 455.882 221.421 475.741 176.447C485.733 153.82 490.039 136.008 490.582 123.662C490.986 114.45 489.298 110.992 488.789 110.202C487.999 109.693 484.541 108.005 475.329 108.41C462.983 108.952 445.171 113.258 422.544 123.25ZM488.977 110.343C488.974 110.346 488.932 110.317 488.859 110.249C488.943 110.306 488.979 110.34 488.977 110.343ZM488.743 110.132C488.674 110.059 488.646 110.017 488.648 110.015C488.651 110.012 488.685 110.049 488.743 110.132ZM143.901 454.762C143.903 454.76 143.945 454.789 144.018 454.857C143.935 454.799 143.898 454.765 143.901 454.762ZM144.134 454.973C144.203 455.047 144.231 455.088 144.229 455.091C144.226 455.093 144.192 455.057 144.134 454.973ZM520.1 78.8917C476.529 35.3209 350.026 91.182 237.547 203.661C125.068 316.14 69.2068 442.643 112.778 486.214C156.348 529.784 282.852 473.923 395.33 361.444C507.809 248.966 563.67 122.462 520.1 78.8917Z" data-figma-gradient-fill="{&#34;type&#34;:&#34;GRADIENT_DIAMOND&#34;,&#34;stops&#34;:[{&#34;color&#34;:{&#34;r&#34;:0.61568629741668701,&#34;g&#34;:0.91764706373214722,&#34;b&#34;:0.83137255907058716,&#34;a&#34;:1.0},&#34;position&#34;:0.0},{&#34;color&#34;:{&#34;r&#34;:1.0,&#34;g&#34;:1.0,&#34;b&#34;:1.0,&#34;a&#34;:1.0},&#34;position&#34;:1.0}],&#34;stopsVar&#34;:[{&#34;color&#34;:{&#34;r&#34;:0.61568629741668701,&#34;g&#34;:0.91764706373214722,&#34;b&#34;:0.83137255907058716,&#34;a&#34;:1.0},&#34;position&#34;:0.0},{&#34;color&#34;:{&#34;r&#34;:1.0,&#34;g&#34;:1.0,&#34;b&#34;:1.0,&#34;a&#34;:1.0},&#34;position&#34;:1.0}],&#34;transform&#34;:{&#34;m00&#34;:-605.73162841796875,&#34;m01&#34;:-276.46624755859375,&#34;m02&#34;:757.53747558593750,&#34;m10&#34;:713.703613281250,&#34;m11&#34;:-234.64129638671875,&#34;m12&#34;:43.021488189697266},&#34;opacity&#34;:1.0,&#34;blendMode&#34;:&#34;NORMAL&#34;,&#34;visible&#34;:true}"/>
<defs>
<clipPath id="paint0_diamond_3_2052_clip_path"><path fill-rule="evenodd" clip-rule="evenodd" d="M609.501 193.08C539.046 224.191 452.346 284.46 368.722 368.083C285.099 451.706 224.831 538.407 193.72 608.862C178.067 644.309 171.321 672.213 170.472 691.553C169.838 705.985 172.482 711.401 173.279 712.64C174.518 713.437 179.935 716.081 194.366 715.448C213.706 714.598 241.61 707.852 277.057 692.199C347.512 661.088 434.213 600.82 517.836 517.197C601.459 433.573 661.728 346.873 692.839 276.418C708.492 240.971 715.237 213.067 716.087 193.726C716.721 179.295 714.076 173.878 713.279 172.64C712.041 171.843 706.624 169.198 692.193 169.832C672.852 170.682 644.948 177.427 609.501 193.08ZM713.572 172.861C713.568 172.865 713.503 172.82 713.389 172.713C713.519 172.803 713.576 172.857 713.572 172.861ZM713.206 172.53C713.099 172.416 713.054 172.351 713.058 172.346C713.062 172.343 713.116 172.4 713.206 172.53ZM172.986 712.419C172.99 712.415 173.055 712.46 173.17 712.567C173.039 712.477 172.982 712.423 172.986 712.419ZM173.352 712.749C173.459 712.864 173.504 712.929 173.5 712.933C173.496 712.937 173.442 712.88 173.352 712.749ZM762.329 123.59C694.072 55.3333 495.896 142.844 319.689 319.05C143.483 495.256 55.9728 693.433 124.23 761.69C192.486 829.946 390.663 742.436 566.869 566.23C743.075 390.023 830.586 191.847 762.329 123.59Z"/></clipPath><clipPath id="paint1_diamond_3_2052_clip_path"><path fill-rule="evenodd" clip-rule="evenodd" d="M505.886 159.177C451.268 183.295 384.056 230.016 319.23 294.842C254.404 359.668 207.683 426.88 183.565 481.497C171.431 508.977 166.202 530.608 165.543 545.601C165.052 556.788 167.102 560.987 167.72 561.948C168.68 562.565 172.879 564.616 184.066 564.124C199.06 563.465 220.691 558.236 248.17 546.102C302.788 521.984 369.999 475.263 434.826 410.437C499.652 345.611 546.372 278.399 570.49 223.782C582.625 196.302 587.854 174.671 588.513 159.678C589.004 148.491 586.954 144.291 586.336 143.331C585.376 142.713 581.177 140.663 569.99 141.155C554.996 141.813 533.365 147.043 505.886 159.177ZM586.563 143.502C586.56 143.506 586.51 143.471 586.421 143.388C586.522 143.458 586.566 143.499 586.563 143.502ZM586.279 143.246C586.196 143.157 586.162 143.107 586.165 143.104C586.168 143.101 586.209 143.145 586.279 143.246ZM167.492 561.776C167.495 561.773 167.546 561.808 167.635 561.891C167.534 561.821 167.489 561.78 167.492 561.776ZM167.776 562.032C167.859 562.121 167.894 562.172 167.891 562.175C167.888 562.178 167.846 562.134 167.776 562.032ZM624.36 105.307C571.446 52.3935 417.817 120.233 281.219 256.831C144.621 393.429 76.782 547.058 129.696 599.972C182.609 652.885 336.239 585.046 472.837 448.448C609.434 311.85 677.274 158.221 624.36 105.307Z"/></clipPath><clipPath id="paint2_diamond_3_2052_clip_path"><path fill-rule="evenodd" clip-rule="evenodd" d="M422.544 123.25C377.57 143.109 322.226 181.58 268.846 234.96C215.466 288.34 176.995 343.684 157.136 388.658C147.144 411.285 142.838 429.097 142.296 441.443C141.891 450.655 143.579 454.113 144.088 454.903C144.878 455.412 148.336 457.1 157.548 456.696C169.894 456.153 187.706 451.847 210.333 441.856C255.307 421.996 310.651 383.525 364.031 330.145C417.411 276.765 455.882 221.421 475.741 176.447C485.733 153.82 490.039 136.008 490.582 123.662C490.986 114.45 489.298 110.992 488.789 110.202C487.999 109.693 484.541 108.005 475.329 108.41C462.983 108.952 445.171 113.258 422.544 123.25ZM488.977 110.343C488.974 110.346 488.932 110.317 488.859 110.249C488.943 110.306 488.979 110.34 488.977 110.343ZM488.743 110.132C488.674 110.059 488.646 110.017 488.648 110.015C488.651 110.012 488.685 110.049 488.743 110.132ZM143.901 454.762C143.903 454.76 143.945 454.789 144.018 454.857C143.935 454.799 143.898 454.765 143.901 454.762ZM144.134 454.973C144.203 455.047 144.231 455.088 144.229 455.091C144.226 455.093 144.192 455.057 144.134 454.973ZM520.1 78.8917C476.529 35.3209 350.026 91.182 237.547 203.661C125.068 316.14 69.2068 442.643 112.778 486.214C156.348 529.784 282.852 473.923 395.33 361.444C507.809 248.966 563.67 122.462 520.1 78.8917Z"/></clipPath><linearGradient id="paint0_diamond_3_2052" x1="0" y1="0" x2="500" y2="500" gradientUnits="userSpaceOnUse">
<stop stop-color="#9DEAD4"/>
<stop offset="1" stop-color="white"/>
</linearGradient>
<linearGradient id="paint1_diamond_3_2052" x1="0" y1="0" x2="500" y2="500" gradientUnits="userSpaceOnUse">
<stop stop-color="#9DEAD4"/>
<stop offset="1" stop-color="white"/>
</linearGradient>
<linearGradient id="paint2_diamond_3_2052" x1="0" y1="0" x2="500" y2="500" gradientUnits="userSpaceOnUse">
<stop stop-color="#9DEAD4"/>
<stop offset="1" stop-color="white"/>
</linearGradient>
</defs>
</svg>
